{
    "accessors": [
        {
            "bufferView": 1,
            "byteOffset": 0,
            "componentType": 5123,
            "count": 186,
            "max": [
                127
            ],
            "min": [
                0
            ],
            "name": "accessor_buffer_Cone_2",
            "type": "SCALAR"
        },
        {
            "bufferView": 2,
            "byteOffset": 0,
            "componentType": 5126,
            "count": 24,
            "max": [
                1.0000004768371582,
                1.0000003576278687,
                1.0
            ],
            "min": [
                -1.0000003576278687,
                -1.0000005960464478,
                -1.0
            ],
            "name": "accessor_buffer_Cube_0",
            "type": "VEC3"
        },
        {
            "bufferView": 7,
            "byteOffset": 0,
            "componentType": 5123,
            "count": 240,
            "max": [
                239
            ],
            "min": [
                0
            ],
            "name": "accessor_buffer_Icosphere.002_2",
            "type": "SCALAR"
        },
        {
            "bufferView": 4,
            "byteOffset": 12,
            "componentType": 5126,
            "count": 240,
            "max": [
                0.9920774102210999,
                0.9435215592384338,
                0.9435237646102905
            ],
            "min": [
                -0.9920774102210999,
                -0.9435215592384338,
                -0.9435237646102905
            ],
            "name": "accessor_buffer_Icosphere_1",
            "type": "VEC3"
        },
        {
            "bufferView": 4,
            "byteOffset": 0,
            "componentType": 5126,
            "count": 240,
            "max": [
                0.9510578513145447,
                0.9999999403953552,
                1.0
            ],
            "min": [
                -0.9510578513145447,
                -0.9999999403953552,
                -1.0
            ],
            "name": "accessor_buffer_Icosphere_0",
            "type": "VEC3"
        },
        {
            "bufferView": 0,
            "byteOffset": 12,
            "componentType": 5126,
            "count": 128,
            "max": [
                0.89097660779953,
                0.8909766674041748,
                0.44548845291137695
            ],
            "min": [
                -0.8909767866134644,
                -0.8909766674041748,
                -1.0
            ],
            "name": "accessor_buffer_Cone_1",
            "type": "VEC3"
        },
        {
            "bufferView": 5,
            "byteOffset": 0,
            "componentType": 5123,
            "count": 240,
            "max": [
                239
            ],
            "min": [
                0
            ],
            "name": "accessor_buffer_Icosphere_2",
            "type": "SCALAR"
        },
        {
            "bufferView": 0,
            "byteOffset": 0,
            "componentType": 5126,
            "count": 128,
            "max": [
                1.0,
                1.0,
                1.0
            ],
            "min": [
                -1.0,
                -1.0,
                -1.0
            ],
            "name": "accessor_buffer_Cone_0",
            "type": "VEC3"
        },
        {
            "bufferView": 10,
            "byteOffset": 12,
            "componentType": 5126,
            "count": 2304,
            "max": [
                0.9639958739280701,
                0.9639962315559387,
                0.9657869338989258
            ],
            "min": [
                -0.9639958739280701,
                -0.9639962315559387,
                -0.9657869935035706
            ],
            "name": "accessor_buffer_Torus_1",
            "type": "VEC3"
        },
        {
            "bufferView": 10,
            "byteOffset": 0,
            "componentType": 5126,
            "count": 2304,
            "max": [
                1.25,
                1.25,
                0.25
            ],
            "min": [
                -1.25,
                -1.25,
                -0.25
            ],
            "name": "accessor_buffer_Torus_0",
            "type": "VEC3"
        },
        {
            "bufferView": 11,
            "byteOffset": 0,
            "componentType": 5123,
            "count": 3456,
            "max": [
                2303
            ],
            "min": [
                0
            ],
            "name": "accessor_buffer_Torus_2",
            "type": "SCALAR"
        },
        {
            "bufferView": 3,
            "byteOffset": 0,
            "componentType": 5123,
            "count": 36,
            "max": [
                23
            ],
            "min": [
                0
            ],
            "name": "accessor_buffer_Cube_2",
            "type": "SCALAR"
        },
        {
            "bufferView": 2,
            "byteOffset": 12,
            "componentType": 5126,
            "count": 24,
            "max": [
                1.0,
                1.0,
                1.0
            ],
            "min": [
                -1.0,
                -1.0,
                -1.0
            ],
            "name": "accessor_buffer_Cube_1",
            "type": "VEC3"
        },
        {
            "bufferView": 6,
            "byteOffset": 0,
            "componentType": 5126,
            "count": 240,
            "max": [
                0.9510578513145447,
                0.9999999403953552,
                1.0
            ],
            "min": [
                -0.9510578513145447,
                -0.9999999403953552,
                -1.0
            ],
            "name": "accessor_buffer_Icosphere.002_0",
            "type": "VEC3"
        },
        {
            "bufferView": 8,
            "byteOffset": 12,
            "componentType": 5126,
            "count": 1984,
            "max": [
                0.9904382824897766,
                0.9904387593269348,
                0.9951385855674744
            ],
            "min": [
                -0.9904382824897766,
                -0.9904382824897766,
                -0.9951385259628296
            ],
            "name": "accessor_buffer_Sphere_1",
            "type": "VEC3"
        },
        {
            "bufferView": 9,
            "byteOffset": 0,
            "componentType": 5123,
            "count": 2880,
            "max": [
                1983
            ],
            "min": [
                0
            ],
            "name": "accessor_buffer_Sphere_2",
            "type": "SCALAR"
        },
        {
            "bufferView": 6,
            "byteOffset": 12,
            "componentType": 5126,
            "count": 240,
            "max": [
                0.9920774102210999,
                0.9435215592384338,
                0.9435237646102905
            ],
            "min": [
                -0.9920774102210999,
                -0.9435215592384338,
                -0.9435237646102905
            ],
            "name": "accessor_buffer_Icosphere.002_1",
            "type": "VEC3"
        },
        {
            "bufferView": 8,
            "byteOffset": 0,
            "componentType": 5126,
            "count": 1984,
            "max": [
                1.000000238418579,
                0.9999991655349731,
                1.0
            ],
            "min": [
                -0.9999998211860657,
                -1.0000003576278687,
                -1.0
            ],
            "name": "accessor_buffer_Sphere_0",
            "type": "VEC3"
        }
    ],
    "asset": {
        "version": "2.0"
    },
    "bufferViews": [
        {
            "buffer": 0,
            "byteLength": 3072,
            "byteOffset": 0,
            "byteStride": 24,
            "name": "bufferView_buffer_Cone_0",
            "target": 34962
        },
        {
            "buffer": 0,
            "byteLength": 372,
            "byteOffset": 3072,
            "name": "bufferView_buffer_Cone_1",
            "target": 34963
        },
        {
            "buffer": 0,
            "byteLength": 576,
            "byteOffset": 3444,
            "byteStride": 24,
            "name": "bufferView_buffer_Cube_0",
            "target": 34962
        },
        {
            "buffer": 0,
            "byteLength": 72,
            "byteOffset": 4020,
            "name": "bufferView_buffer_Cube_1",
            "target": 34963
        },
        {
            "buffer": 0,
            "byteLength": 5760,
            "byteOffset": 4092,
            "byteStride": 24,
            "name": "bufferView_buffer_Icosphere_0",
            "target": 34962
        },
        {
            "buffer": 0,
            "byteLength": 480,
            "byteOffset": 9852,
            "name": "bufferView_buffer_Icosphere_1",
            "target": 34963
        },
        {
            "buffer": 0,
            "byteLength": 5760,
            "byteOffset": 10332,
            "byteStride": 24,
            "name": "bufferView_buffer_Icosphere.002_0",
            "target": 34962
        },
        {
            "buffer": 0,
            "byteLength": 480,
            "byteOffset": 16092,
            "name": "bufferView_buffer_Icosphere.002_1",
            "target": 34963
        },
        {
            "buffer": 0,
            "byteLength": 47616,
            "byteOffset": 16572,
            "byteStride": 24,
            "name": "bufferView_buffer_Sphere_0",
            "target": 34962
        },
        {
            "buffer": 0,
            "byteLength": 5760,
            "byteOffset": 64188,
            "name": "bufferView_buffer_Sphere_1",
            "target": 34963
        },
        {
            "buffer": 0,
            "byteLength": 55296,
            "byteOffset": 69948,
            "byteStride": 24,
            "name": "bufferView_buffer_Torus_0",
            "target": 34962
        },
        {
            "buffer": 0,
            "byteLength": 6912,
            "byteOffset": 125244,
            "name": "bufferView_buffer_Torus_1",
            "target": 34963
        }
    ],
    "buffers": [
        {
            "byteLength": 132156,
            "name": "buffer_combined",
            "uri": "buffer_combined.bin"
        }
    ],
    "cameras": [
        {
            "name": "Camera",
            "perspective": {
                "aspectRatio": 1.703595982340029,
                "yfov": 0.5033799409866333,
                "zfar": 100.0,
                "znear": 0.10000000149011612
            },
            "type": "perspective"
        }
    ],
    "materials": [
        {
            "emissiveFactor": [
                0.0,
                0.0,
                0.0
            ],
            "name": "Material",
            "pbrMetallicRoughness": {
                "baseColorFactor": [
                    0.64000004529953,
                    0.64000004529953,
                    0.64000004529953,
                    1.0
                ],
                "metallicFactor": 0.0,
                "roughnessFactor": 1.0
            }
        }
    ],
    "meshes": [
        {
            "name": "Cone",
            "primitives": [
                {
                    "attributes": {
                        "NORMAL": 5,
                        "POSITION": 7
                    },
                    "indices": 0,
                    "mode": 4
                }
            ]
        },
        {
            "name": "Cube",
            "primitives": [
                {
                    "attributes": {
                        "NORMAL": 12,
                        "POSITION": 1
                    },
                    "indices": 11,
                    "material": 0,
                    "mode": 4
                }
            ]
        },
        {
            "name": "Icosphere",
            "primitives": [
                {
                    "attributes": {
                        "NORMAL": 3,
                        "POSITION": 4
                    },
                    "indices": 6,
                    "mode": 4
                }
            ]
        },
        {
            "name": "Icosphere.002",
            "primitives": [
                {
                    "attributes": {
                        "NORMAL": 16,
                        "POSITION": 13
                    },
                    "indices": 2,
                    "mode": 4
                }
            ]
        },
        {
            "name": "Sphere",
            "primitives": [
                {
                    "attributes": {
                        "NORMAL": 14,
                        "POSITION": 17
                    },
                    "indices": 15,
                    "mode": 4
                }
            ]
        },
        {
            "name": "Torus",
            "primitives": [
                {
                    "attributes": {
                        "NORMAL": 8,
                        "POSITION": 9
                    },
                    "indices": 10,
                    "mode": 4
                }
            ]
        }
    ],
    "nodes": [
        {
            "camera": 0,
            "name": "Camera",
            "rotation": [
                0.483536034822464,
                0.20870360732078552,
                0.33687159419059753,
                0.7804827094078064
            ],
            "scale": [
                1.0,
                1.0,
                1.0
            ],
            "translation": [
                7.481131553649902,
                -6.5076398849487305,
                5.34366512298584
            ]
        },
        {
            "mesh": 0,
            "name": "Cone",
            "rotation": [
                0.0,
                0.0,
                0.0,
                1.0
            ],
            "scale": [
                1.0,
                1.0,
                1.0
            ],
            "translation": [
                -1.5791492462158203,
                -4.488190174102783,
                1.2751394510269165
            ]
        },
        {
            "mesh": 1,
            "name": "Cube",
            "rotation": [
                0.0,
                0.0,
                0.0,
                1.0
            ],
            "scale": [
                1.0,
                1.0,
                1.0
            ],
            "translation": [
                0.0,
                0.0,
                0.0
            ]
        },
        {
            "mesh": 2,
            "name": "Icosphere",
            "rotation": [
                0.0,
                0.0,
                0.0,
                1.0
            ],
            "scale": [
                1.0,
                1.0,
                1.0
            ],
            "translation": [
                0.0,
                0.0,
                0.0
            ]
        },
        {
            "mesh": 3,
            "name": "Icosphere.002",
            "rotation": [
                0.0,
                0.0,
                0.0,
                1.0
            ],
            "scale": [
                1.0,
                1.0,
                1.0
            ],
            "translation": [
                -2.23195743560791,
                -4.285158634185791,
                -2.453000068664551
            ]
        },
        {
            "name": "Lamp",
            "rotation": [
                0.16907575726509094,
                0.27217137813568115,
                0.7558802962303162,
                0.570947527885437
            ],
            "scale": [
                1.0,
                0.9999999403953552,
                1.0
            ],
            "translation": [
                4.076245307922363,
                1.0054539442062378,
                5.903861999511719
            ]
        },
        {
            "mesh": 4,
            "name": "Sphere",
            "rotation": [
                0.0,
                0.0,
                0.0,
                1.0
            ],
            "scale": [
                1.0,
                1.0,
                1.0
            ],
            "translation": [
                -1.2670745849609375,
                -0.2703436017036438,
                3.587984323501587
            ]
        },
        {
            "mesh": 5,
            "name": "Torus",
            "rotation": [
                0.0,
                0.0,
                0.0,
                1.0
            ],
            "scale": [
                1.0,
                1.0,
                1.0
            ],
            "translation": [
                -1.5791492462158203,
                -4.488190174102783,
                1.2751394510269165
            ]
        },
        {
            "children": [
                6,
                7,
                1,
                4,
                3,
                2,
                5,
                0
            ],
            "matrix": [
                1.0,
                0.0,
                0.0,
                0.0,
                0.0,
                0.0,
                -1.0,
                0.0,
                0.0,
                1.0,
                0.0,
                0.0,
                0.0,
                0.0,
                0.0,
                1.0
            ],
            "name": "Scene_root"
        }
    ],
    "samplers": [
        {
            "name": "default"
        }
    ],
    "scene": 0,
    "scenes": [
        {
            "extras": {
                "active_camera": 0,
                "background_color": [
                    0.05087608844041824,
                    0.05087608844041824,
                    0.05087608844041824
                ],
                "frames_per_second": 24
            },
            "name": "Scene",
            "nodes": [
                8
            ]
        }
    ]
}
