{
    "accessors": [
        {
            "bufferView": 6,
            "byteOffset": 0,
            "componentType": 5126,
            "count": 1966,
            "max": [
                1.3671875,
                0.8515625,
                0.984375
            ],
            "min": [
                -1.3671875,
                -0.8515625,
                -0.984375
            ],
            "name": "accessor_buffer_Suzanne_0",
            "type": "VEC3"
        },
        {
            "bufferView": 1,
            "byteOffset": 0,
            "componentType": 5123,
            "count": 186,
            "max": [
                127
            ],
            "min": [
                0
            ],
            "name": "accessor_buffer_Cone_2",
            "type": "SCALAR"
        },
        {
            "bufferView": 6,
            "byteOffset": 12,
            "componentType": 5126,
            "count": 1966,
            "max": [
                1.0,
                0.9864740371704102,
                0.9970182180404663
            ],
            "min": [
                -1.0,
                -1.0,
                -0.992402970790863
            ],
            "name": "accessor_buffer_Suzanne_1",
            "type": "VEC3"
        },
        {
            "bufferView": 7,
            "byteOffset": 0,
            "componentType": 5123,
            "count": 2904,
            "max": [
                1965
            ],
            "min": [
                0
            ],
            "name": "accessor_buffer_Suzanne_2",
            "type": "SCALAR"
        },
        {
            "bufferView": 0,
            "byteOffset": 0,
            "componentType": 5126,
            "count": 128,
            "max": [
                1.0,
                1.0,
                1.0
            ],
            "min": [
                -1.0,
                -1.0,
                -1.0
            ],
            "name": "accessor_buffer_Cone_0",
            "type": "VEC3"
        },
        {
            "bufferView": 5,
            "byteOffset": 0,
            "componentType": 5123,
            "count": 36,
            "max": [
                23
            ],
            "min": [
                0
            ],
            "name": "accessor_buffer_Cube_2",
            "type": "SCALAR"
        },
        {
            "bufferView": 4,
            "byteOffset": 12,
            "componentType": 5126,
            "count": 24,
            "max": [
                1.0,
                1.0,
                1.0
            ],
            "min": [
                -1.0,
                -1.0,
                -1.0
            ],
            "name": "accessor_buffer_Cube_1",
            "type": "VEC3"
        },
        {
            "bufferView": 2,
            "byteOffset": 0,
            "componentType": 5126,
            "count": 128,
            "max": [
                1.0,
                1.0,
                1.0
            ],
            "min": [
                -1.0,
                -1.0,
                -1.0
            ],
            "name": "accessor_buffer_Cone.001_0",
            "type": "VEC3"
        },
        {
            "bufferView": 0,
            "byteOffset": 12,
            "componentType": 5126,
            "count": 128,
            "max": [
                0.89097660779953,
                0.8909766674041748,
                0.44548845291137695
            ],
            "min": [
                -0.8909767866134644,
                -0.8909766674041748,
                -1.0
            ],
            "name": "accessor_buffer_Cone_1",
            "type": "VEC3"
        },
        {
            "bufferView": 3,
            "byteOffset": 0,
            "componentType": 5123,
            "count": 186,
            "max": [
                127
            ],
            "min": [
                0
            ],
            "name": "accessor_buffer_Cone.001_2",
            "type": "SCALAR"
        },
        {
            "bufferView": 2,
            "byteOffset": 12,
            "componentType": 5126,
            "count": 128,
            "max": [
                0.89097660779953,
                0.8909766674041748,
                0.44548845291137695
            ],
            "min": [
                -0.8909767866134644,
                -0.8909766674041748,
                -1.0
            ],
            "name": "accessor_buffer_Cone.001_1",
            "type": "VEC3"
        },
        {
            "bufferView": 4,
            "byteOffset": 0,
            "componentType": 5126,
            "count": 24,
            "max": [
                1.0000004768371582,
                1.0000003576278687,
                1.0
            ],
            "min": [
                -1.0000003576278687,
                -1.0000005960464478,
                -1.0
            ],
            "name": "accessor_buffer_Cube_0",
            "type": "VEC3"
        }
    ],
    "asset": {
        "version": "2.0"
    },
    "bufferViews": [
        {
            "buffer": 0,
            "byteLength": 3072,
            "byteOffset": 0,
            "byteStride": 24,
            "name": "bufferView_buffer_Cone_0",
            "target": 34962
        },
        {
            "buffer": 0,
            "byteLength": 372,
            "byteOffset": 3072,
            "name": "bufferView_buffer_Cone_1",
            "target": 34963
        },
        {
            "buffer": 0,
            "byteLength": 3072,
            "byteOffset": 3444,
            "byteStride": 24,
            "name": "bufferView_buffer_Cone.001_0",
            "target": 34962
        },
        {
            "buffer": 0,
            "byteLength": 372,
            "byteOffset": 6516,
            "name": "bufferView_buffer_Cone.001_1",
            "target": 34963
        },
        {
            "buffer": 0,
            "byteLength": 576,
            "byteOffset": 6888,
            "byteStride": 24,
            "name": "bufferView_buffer_Cube_0",
            "target": 34962
        },
        {
            "buffer": 0,
            "byteLength": 72,
            "byteOffset": 7464,
            "name": "bufferView_buffer_Cube_1",
            "target": 34963
        },
        {
            "buffer": 0,
            "byteLength": 47184,
            "byteOffset": 7536,
            "byteStride": 24,
            "name": "bufferView_buffer_Suzanne_0",
            "target": 34962
        },
        {
            "buffer": 0,
            "byteLength": 5808,
            "byteOffset": 54720,
            "name": "bufferView_buffer_Suzanne_1",
            "target": 34963
        }
    ],
    "buffers": [
        {
            "byteLength": 60528,
            "name": "buffer_combined",
            "uri": "buffer_combined.bin"
        }
    ],
    "cameras": [
        {
            "name": "Camera",
            "perspective": {
                "aspectRatio": 1.703595982340029,
                "yfov": 0.5033799409866333,
                "zfar": 100.0,
                "znear": 0.10000000149011612
            },
            "type": "perspective"
        }
    ],
    "materials": [
        {
            "emissiveFactor": [
                0.0,
                0.0,
                0.0
            ],
            "name": "Material",
            "pbrMetallicRoughness": {
                "baseColorFactor": [
                    0.64000004529953,
                    0.64000004529953,
                    0.64000004529953,
                    1.0
                ],
                "metallicFactor": 0.0,
                "roughnessFactor": 1.0
            }
        }
    ],
    "meshes": [
        {
            "name": "Cone",
            "primitives": [
                {
                    "attributes": {
                        "NORMAL": 8,
                        "POSITION": 4
                    },
                    "indices": 1,
                    "mode": 4
                }
            ]
        },
        {
            "name": "Cone.001",
            "primitives": [
                {
                    "attributes": {
                        "NORMAL": 10,
                        "POSITION": 7
                    },
                    "indices": 9,
                    "mode": 4
                }
            ]
        },
        {
            "name": "Cube",
            "primitives": [
                {
                    "attributes": {
                        "NORMAL": 6,
                        "POSITION": 11
                    },
                    "indices": 5,
                    "material": 0,
                    "mode": 4
                }
            ]
        },
        {
            "name": "Suzanne",
            "primitives": [
                {
                    "attributes": {
                        "NORMAL": 2,
                        "POSITION": 0
                    },
                    "indices": 3,
                    "mode": 4
                }
            ]
        }
    ],
    "nodes": [
        {
            "camera": 0,
            "name": "Camera",
            "rotation": [
                0.483536034822464,
                0.20870360732078552,
                0.33687159419059753,
                0.7804827094078064
            ],
            "scale": [
                1.0,
                1.0,
                1.0
            ],
            "translation": [
                7.481131553649902,
                -6.5076398849487305,
                5.34366512298584
            ]
        },
        {
            "mesh": 0,
            "name": "Cone",
            "rotation": [
                0.0,
                0.0,
                0.0,
                1.0
            ],
            "scale": [
                1.0,
                1.0,
                1.0
            ],
            "translation": [
                2.4031436443328857,
                -0.6234565377235413,
                -1.036203384399414
            ]
        },
        {
            "mesh": 1,
            "name": "Cone.001",
            "rotation": [
                0.0,
                0.0,
                0.0,
                1.0
            ],
            "scale": [
                1.0,
                1.0,
                1.0
            ],
            "translation": [
                2.619391918182373,
                5.031010150909424,
                -0.42775654792785645
            ]
        },
        {
            "mesh": 2,
            "name": "Cube",
            "rotation": [
                0.0,
                0.0,
                0.0,
                1.0
            ],
            "scale": [
                2.236738681793213,
                2.236738681793213,
                2.236738681793213
            ],
            "translation": [
                -1.469184160232544,
                4.974189281463623,
                -0.4840022325515747
            ]
        },
        {
            "name": "Lamp",
            "rotation": [
                0.16907575726509094,
                0.27217137813568115,
                0.7558802962303162,
                0.570947527885437
            ],
            "scale": [
                1.0,
                0.9999999403953552,
                1.0
            ],
            "translation": [
                4.076245307922363,
                1.0054539442062378,
                5.903861999511719
            ]
        },
        {
            "mesh": 3,
            "name": "Suzanne",
            "rotation": [
                0.0,
                0.0,
                0.0,
                1.0
            ],
            "scale": [
                2.2993147373199463,
                2.2993147373199463,
                2.2993147373199463
            ],
            "translation": [
                2.222200632095337,
                -1.2303619384765625,
                4.108023643493652
            ]
        },
        {
            "children": [
                5,
                2,
                1,
                3,
                4,
                0
            ],
            "matrix": [
                1.0,
                0.0,
                0.0,
                0.0,
                0.0,
                0.0,
                -1.0,
                0.0,
                0.0,
                1.0,
                0.0,
                0.0,
                0.0,
                0.0,
                0.0,
                1.0
            ],
            "name": "Scene_root"
        }
    ],
    "samplers": [
        {
            "name": "default"
        }
    ],
    "scene": 0,
    "scenes": [
        {
            "extras": {
                "active_camera": 0,
                "background_color": [
                    0.05087608844041824,
                    0.05087608844041824,
                    0.05087608844041824
                ],
                "frames_per_second": 24
            },
            "name": "Scene",
            "nodes": [
                6
            ]
        }
    ]
}
